<?xml version="1.0" encoding="UTF-8"?>
<svg id="color_picker" xmlns="http://www.w3.org/2000/svg" version="1.1" viewBox="0 0 32 32">
  <!-- Generator: Adobe Illustrator 29.5.1, SVG Export Plug-In . SVG Version: 2.1.0 Build 141)  -->
  <defs>
    <style>
      .st0 {
        fill: #fff;
      }
    </style>
  </defs>
  <path class="st0" d="M20.64,10.17l1.34-1.48c1.48-1.64,1.35-4.17-.29-5.65-1.09-.99-2.64-1.29-4.03-.8-.62.22-1.18.6-1.62,1.08-.37.41-.34,1.04.07,1.41.41.37,1.04.34,1.41-.07.22-.25.5-.43.81-.54.7-.25,1.47-.1,2.02.4.82.74.88,2.01.14,2.82l-1.34,1.48s0,0,0,0c0,0,0,0,0,0l-1.64-1.48-2.06-1.87s0,0,0,0l-.74-.67c-.41-.37-1.04-.34-1.41.07-.37.41-.34,1.04.07,1.41l.74.67-4.62,5.11c-1.47,1.63-2.6,3.5-3.36,5.55-.27.74-.07,1.55.51,2.08.36.33.82.49,1.28.49.29,0,.57-.06.84-.2,1.97-.96,3.71-2.28,5.19-3.91l4.62-5.11.74.67c.19.17.43.26.67.26.27,0,.54-.11.74-.33.37-.41.34-1.04-.07-1.41h0ZM12.45,14.75c-1.25,1.38-2.72,2.51-4.37,3.35.67-1.73,1.64-3.31,2.89-4.69l4.62-5.11,1.48,1.34-4.62,5.11Z"/>
  <path class="st0" d="M7.92,21.61c-.16-.37-.52-.61-.92-.61s-.77.24-.92.61l-1.85,4.4c-.37.87-.27,1.86.25,2.66.55.83,1.5,1.33,2.52,1.33s1.97-.5,2.52-1.33c.52-.79.62-1.78.25-2.66l-1.85-4.4ZM7.86,27.56c-.37.55-1.35.55-1.72,0-.09-.14-.22-.42-.08-.77l.93-2.21.93,2.21c.15.35.02.63-.08.77Z"/>
  <path class="st0" d="M15.5,23c-1.93,0-3.5,1.57-3.5,3.5s1.57,3.5,3.5,3.5c.23,0,.47-.02.7-.07.54-.11.89-.63.79-1.18-.11-.54-.64-.9-1.18-.79-.1.02-.2.03-.3.03-.83,0-1.5-.67-1.5-1.5s.67-1.5,1.5-1.5,1.5.67,1.5,1.5c0,.55.45,1,1,1s1-.45,1-1c0-1.93-1.57-3.5-3.5-3.5Z"/>
  <path class="st0" d="M24.5,23c-1.93,0-3.5,1.57-3.5,3.5s1.57,3.5,3.5,3.5,3.5-1.57,3.5-3.5-1.57-3.5-3.5-3.5ZM24.5,28c-.83,0-1.5-.67-1.5-1.5s.67-1.5,1.5-1.5,1.5.67,1.5,1.5-.67,1.5-1.5,1.5Z"/>
</svg>