<?xml version="1.0" encoding="UTF-8"?>
<svg id="OBJECT" xmlns="http://www.w3.org/2000/svg" version="1.1" viewBox="0 0 32 32">
  <!-- Generator: Adobe Illustrator 29.5.1, SVG Export Plug-In . SVG Version: 2.1.0 Build 141)  -->
  <defs>
    <style>
      .st0 {
        fill: #fff;
      }
    </style>
  </defs>
  <path class="st0" d="M26.99,3.13H5.33c-1.2,0-2.17.97-2.17,2.17v14.73c0,1.2.97,2.17,2.17,2.17h7.37v1.73h-1.73c-.33,0-.63.19-.78.48l-1.49,2.99h-2.06c-.48,0-.87.39-.87.87s.39.87.87.87h19.07c.48,0,.87-.39.87-.87s-.39-.87-.87-.87h-2.06l-1.49-2.99c-.15-.29-.45-.48-.78-.48h-1.73v-1.73h7.37c1.2,0,2.17-.97,2.17-2.17V5.3c0-1.19-.97-2.17-2.17-2.17ZM27.43,5.3v1.3h-6.07v-1.73h5.63c.24,0,.43.19.43.43ZM4.89,20.03V5.3c0-.24.19-.43.43-.43h14.3v15.6H5.33c-.24,0-.43-.19-.43-.43ZM21.69,27.4h-11.06l.87-1.73h9.33l.87,1.73ZM17.89,23.93h-3.47v-1.73h3.47v1.73ZM26.99,20.47h-5.63v-12.13h6.07v11.7c0,.24-.19.43-.43.43Z"/>
  <path class="st0" d="M25.26,10.07h-1.73c-.48,0-.87.39-.87.87s.39.87.87.87h1.73c.48,0,.87-.39.87-.87s-.39-.87-.87-.87Z"/>
  <path class="st0" d="M25.26,13.53h-1.73c-.48,0-.87.39-.87.87s.39.87.87.87h1.73c.48,0,.87-.39.87-.87s-.39-.87-.87-.87Z"/>
  <path class="st0" d="M25.26,17h-1.73c-.48,0-.87.39-.87.87s.39.87.87.87h1.73c.48,0,.87-.39.87-.87s-.39-.87-.87-.87Z"/>
  <path class="st0" d="M7.73,16.14h8.67c.48,0,.87-.39.87-.87s-.39-.87-.87-.87H7.73c-.48,0-.87.39-.87.87s.39.87.87.87Z"/>
  <path class="st0" d="M12.99,17.43h-5.2c-.48,0-.87.39-.87.87s.39.87.87.87h5.2c.48,0,.87-.39.87-.87s-.39-.87-.87-.87Z"/>
  <path class="st0" d="M16.45,17.43h-.87c-.48,0-.87.39-.87.87s.39.87.87.87h.87c.48,0,.87-.39.87-.87s-.39-.87-.87-.87Z"/>
  <path class="st0" d="M8.67,11.98c.17.17.39.25.61.25s.44-.08.61-.25c.34-.34.34-.89,0-1.23l-.96-.96.96-.96c.34-.34.34-.89,0-1.23s-.89-.34-1.23,0l-1.58,1.58c-.16.16-.25.38-.25.61s.09.45.25.61l1.58,1.58Z"/>
  <path class="st0" d="M14.19,11.98c.17.17.39.25.61.25s.44-.08.61-.25l1.58-1.58c.16-.16.25-.38.25-.61s-.09-.45-.25-.61l-1.58-1.58c-.34-.34-.89-.34-1.23,0s-.34.89,0,1.23l.96.96-.96.96c-.34.34-.34.89,0,1.23Z"/>
  <path class="st0" d="M11.02,13.38c.08.02.16.03.24.03.38,0,.72-.25.83-.63l1.58-5.52c.13-.46-.14-.94-.6-1.07-.46-.13-.94.13-1.07.59l-1.58,5.52c-.13.46.14.94.6,1.07Z"/>
</svg>