<?xml version="1.0" encoding="UTF-8"?>
<svg id="OBJECT" xmlns="http://www.w3.org/2000/svg" version="1.1" viewBox="0 0 32 32">
  <!-- Generator: Adobe Illustrator 29.5.1, SVG Export Plug-In . SVG Version: 2.1.0 Build 141)  -->
  <defs>
    <style>
      .st0 {
        fill: #fff;
      }
    </style>
  </defs>
  <path class="st0" d="M26.83,2H5.17c-1.19,0-2.17.97-2.17,2.17v14.73c0,1.2.97,2.17,2.17,2.17h7.37v1.73h-1.73c-.33,0-.63.19-.78.48l-1.49,2.99h-2.06c-.48,0-.87.39-.87.87s.39.87.87.87h19.07c.48,0,.87-.39.87-.87s-.39-.87-.87-.87h-2.06l-1.49-2.99c-.15-.29-.45-.48-.78-.48h-1.73v-1.73h7.37c1.19,0,2.17-.97,2.17-2.17V4.17c0-1.19-.97-2.17-2.17-2.17ZM5.17,3.73h21.67c.24,0,.43.19.43.43v11.7H4.73V4.17c0-.24.19-.43.43-.43ZM21.53,26.27h-11.06l.87-1.73h9.33l.87,1.73ZM17.73,22.8h-3.47v-1.73h3.47v1.73ZM26.83,19.33H5.17c-.24,0-.43-.19-.43-.43v-1.3h22.53v1.3c0,.24-.19.43-.43.43Z"/>
  <path class="st0" d="M7.33,10.67h9.53c.48,0,.87-.39.87-.87v-3.47c0-.48-.39-.87-.87-.87H7.33c-.48,0-.87.39-.87.87v3.47c0,.48.39.87.87.87ZM8.2,7.2h7.8v1.73h-7.8v-1.73Z"/>
  <path class="st0" d="M16.87,12.4h-6.07c-.48,0-.87.39-.87.87s.39.87.87.87h6.07c.48,0,.87-.39.87-.87s-.39-.87-.87-.87Z"/>
  <path class="st0" d="M7.33,14.13h.87c.48,0,.87-.39.87-.87s-.39-.87-.87-.87h-.87c-.48,0-.87.39-.87.87s.39.87.87.87Z"/>
  <path class="st0" d="M20.33,14.13h4.33c.48,0,.87-.39.87-.87v-6.93c0-.48-.39-.87-.87-.87h-4.33c-.48,0-.87.39-.87.87v6.93c0,.48.39.87.87.87ZM21.2,7.2h2.6v5.2h-2.6v-5.2Z"/>
</svg>