<?xml version="1.0" encoding="UTF-8"?>
<svg id="OBJECT" xmlns="http://www.w3.org/2000/svg" version="1.1" viewBox="0 0 32 32">
  <!-- Generator: Adobe Illustrator 29.5.1, SVG Export Plug-In . SVG Version: 2.1.0 Build 141)  -->
  <defs>
    <style>
      .st0 {
        fill: #fff;
      }
    </style>
  </defs>
  <path class="st0" d="M28.03,2.25H5.11c-1.26,0-2.29,1.03-2.29,2.29v15.59c0,1.26,1.03,2.29,2.29,2.29h7.79v1.83h-1.83c-.35,0-.66.2-.82.51l-1.58,3.16h-2.18c-.51,0-.92.41-.92.92s.41.92.92.92h20.17c.51,0,.92-.41.92-.92s-.41-.92-.92-.92h-2.18l-1.58-3.16c-.16-.31-.47-.51-.82-.51h-1.83v-1.83h7.79c1.26,0,2.29-1.03,2.29-2.29V4.54c0-1.26-1.03-2.29-2.29-2.29ZM5.11,4.08h22.92c.25,0,.46.21.46.46v12.38H4.65V4.54c0-.25.21-.46.46-.46ZM22.42,27.92h-11.7l.92-1.83h9.87l.92,1.83ZM18.4,24.25h-3.67v-1.83h3.67v1.83ZM28.03,20.58H5.11c-.25,0-.46-.21-.46-.46v-1.38h23.84v1.38c0,.25-.21.46-.46.46Z"/>
  <path class="st0" d="M6.94,14.17h9.25v.45c0,.51.41.92.92.92s.92-.41.92-.92v-.45h4.5c.51,0,.92-.41.92-.92s-.41-.92-.92-.92h-4.5v-.45c0-.51-.41-.92-.92-.92s-.92.41-.92.92v.45H6.94c-.51,0-.92.41-.92.92s.41.92.92.92Z"/>
  <path class="st0" d="M25.28,14.17h.92c.51,0,.92-.41.92-.92s-.41-.92-.92-.92h-.92c-.51,0-.92.41-.92.92s.41.92.92.92Z"/>
  <path class="st0" d="M6.94,8.66h2.84v.45c0,.51.41.92.92.92s.92-.41.92-.92v-.45h10.92c.51,0,.92-.41.92-.92s-.41-.92-.92-.92h-10.92v-.45c0-.51-.41-.92-.92-.92s-.92.41-.92.92v.45h-2.84c-.51,0-.92.41-.92.92s.41.92.92.92Z"/>
  <path class="st0" d="M25.28,8.66h.92c.51,0,.92-.41.92-.92s-.41-.92-.92-.92h-.92c-.51,0-.92.41-.92.92s.41.92.92.92Z"/>
</svg>