<?xml version="1.0" encoding="UTF-8"?>
<svg id="OBJECT" xmlns="http://www.w3.org/2000/svg" version="1.1" viewBox="0 0 32 32">
  <!-- Generator: Adobe Illustrator 29.5.1, SVG Export Plug-In . SVG Version: 2.1.0 Build 141)  -->
  <defs>
    <style>
      .st0 {
        fill: #fff;
      }
    </style>
  </defs>
  <path class="st0" d="M5.86,6.27l-1.9-1.04c-.43-.24-.98-.08-1.22.36s-.08.98.36,1.22l1.9,1.04c.14.08.28.11.43.11.32,0,.62-.17.79-.47.24-.43.08-.98-.36-1.22Z"/>
  <path class="st0" d="M4.22,9.49l-1.01.29c-.47.14-.75.64-.61,1.11.11.39.47.64.86.64.08,0,.17-.01.25-.04l1.01-.29c.47-.14.75-.64.61-1.11-.14-.47-.63-.75-1.11-.61Z"/>
  <path class="st0" d="M6.83,4.72c.11.39.47.64.86.64.08,0,.17-.01.25-.04.47-.14.75-.64.61-1.11l-.3-1.01c-.14-.47-.64-.75-1.11-.61-.47.14-.75.64-.61,1.11l.3,1.01Z"/>
  <path class="st0" d="M28.9,6.8c.43-.24.59-.78.36-1.22-.24-.43-.78-.59-1.22-.36l-1.9,1.04c-.43.24-.59.78-.36,1.22.16.3.47.47.79.47.15,0,.29-.03.43-.11l1.9-1.04Z"/>
  <path class="st0" d="M28.79,9.78l-1.01-.29c-.48-.14-.97.13-1.11.61-.14.47.13.97.61,1.11l1.01.29c.08.02.17.04.25.04.39,0,.75-.25.86-.64.14-.47-.13-.97-.61-1.11Z"/>
  <path class="st0" d="M24.06,5.33c.08.02.17.04.25.04.39,0,.75-.25.86-.64l.3-1.01c.14-.47-.13-.97-.61-1.11-.47-.14-.97.13-1.11.61l-.3,1.01c-.14.47.13.97.61,1.11Z"/>
  <path class="st0" d="M23.94,11.84c-.43.09-.73.48-.72.92.08,1.78-1.04,2.42-1.13,2.47-.29.18-.53.17-.72-.02-.27-.26-.39-.79-.1-1.3,1.32-2.33,1.63-4.43.92-6.24-.98-2.51-3.51-3.43-3.84-3.54-.25-.1-.53-.09-.77.05-.43.25-.57.8-.31,1.23.57.96.67,1.94.29,2.9-.23.61-.85.95-1.52.87-.8-.1-1.08-.45-1.22-.7-.69-1.24.2-3.84.57-4.66.17-.37.06-.81-.26-1.07-.32-.25-.77-.26-1.09-.02-6.32,4.69-5.08,7.62-3.25,10.27.53.76.62,1.5.44,1.83-.1.18-.34.27-.7.26-.82-.01-1.57-2.2-1.78-3.71-.06-.43-.41-.75-.84-.77-.42-.01-.81.26-.92.68-1.86,7.43.4,10.98,2.8,12.67.4,3.08,3.03,5.46,6.21,5.46s5.85-2.41,6.22-5.51c4.41-3.03,3.75-8.81,2.73-11.51-.15-.41-.59-.65-1.02-.56ZM16,27.64c-2.47,0-4.48-2.01-4.48-4.48s2.01-4.48,4.48-4.48,4.48,2.01,4.48,4.48-2.01,4.48-4.48,4.48ZM22.1,21.72c-.65-2.76-3.14-4.83-6.1-4.83s-5.43,2.05-6.09,4.81c-1.39-1.47-1.99-3.62-1.78-6.43.53.9,1.29,1.61,2.36,1.63,1.45,0,2.06-.75,2.31-1.21.54-1.01.33-2.43-.58-3.74-1.1-1.59-2.15-3.1.64-5.89-.17,1.11-.15,2.33.38,3.3.35.63,1.08,1.41,2.55,1.61,1.49.19,2.89-.64,3.42-2.01.26-.66.36-1.34.33-2.01.39.37.75.82.97,1.39.5,1.28.22,2.86-.82,4.69-.66,1.16-.49,2.59.41,3.47.79.77,1.91.87,2.84.3.04-.02.47-.25.93-.76.13,1.79-.14,4.03-1.8,5.68Z"/>
  <path class="st0" d="M16.63,20.16c-.35-.35-.92-.35-1.27,0l-2.37,2.37c-.35.35-.35.92,0,1.27s.92.35,1.27,0l.84-.84v2.99c0,.5.4.9.9.9s.9-.4.9-.9v-2.99l.84.84c.17.17.4.26.63.26s.46-.09.63-.26c.35-.35.35-.92,0-1.27l-2.37-2.37Z"/>
</svg>