<?xml version="1.0" encoding="UTF-8" standalone="no"?>
<!-- Generator: Adobe Illustrator 27.6.1, SVG Export Plug-In . SVG Version: 6.00 Build 0)  -->

<svg
   version="1.1"
   id="Capa_1"
   x="0px"
   y="0px"
   viewBox="0 0 134.21001 25.86"
   xml:space="preserve"
   width="134.21001"
   height="25.860001"
   xmlns="http://www.w3.org/2000/svg"
   xmlns:svg="http://www.w3.org/2000/svg"><defs
   id="defs15" />
<style
   type="text/css"
   id="style1">
	.st0{fill:#FFFFFF;}
</style>


<g
   id="g15"
   transform="translate(-369.41,-65.52)">
	<g
   id="g14">
		<g
   id="g9">
			<polygon
   points="441.57,65.52 427.78,82.13 419.41,72.13 416.75,75.56 427.73,88.85 441.57,72.35 448.86,80.9 451.53,77.55 "
   id="polygon8" />
			<polygon
   points="441.55,83.45 448.33,91.38 450.95,88.1 441.62,76.79 431.97,88.22 434.61,91.36 "
   id="polygon9" />
		</g>
		<path
   d="m 369.41,67.59 h 13.82 v 4.14 h -9.34 v 3.79 h 8.82 v 4.14 h -8.82 v 4.14 h 9.86 v 4.14 h -14.34 z"
   id="path9" />
		<path
   d="m 401.34,67.59 h 13.82 v 4.14 h -9.34 v 3.79 h 8.82 v 4.14 h -8.82 v 4.14 h 9.86 v 4.14 h -14.34 z"
   id="path10" />
		<path
   d="m 457.29,71.55 h -5.8 v -3.97 h 16.09 v 3.97 h -5.8 V 87.93 H 457.3 V 71.55 Z"
   id="path11" />
		<path
   d="m 471.22,67.59 h 13.82 v 4.14 h -9.34 v 3.79 h 8.82 v 4.14 h -8.82 v 4.14 h 9.86 v 4.14 h -14.34 z"
   id="path12" />
		<g
   id="g13">
			<path
   d="m 496.31,80.64 c -0.23,0.06 -0.46,0.1 -0.68,0.14 -0.23,0.04 -0.47,0.06 -0.71,0.06 -0.95,0 -1.81,-0.17 -2.59,-0.51 -0.78,-0.34 -1.44,-0.81 -1.99,-1.4 -0.55,-0.59 -0.98,-1.29 -1.28,-2.09 -0.3,-0.81 -0.46,-1.67 -0.46,-2.58 0,-1.04 0.19,-1.99 0.58,-2.83 0.39,-0.84 0.92,-1.57 1.59,-2.18 0.67,-0.61 1.47,-1.08 2.38,-1.41 0.91,-0.33 1.9,-0.5 2.96,-0.5 1.04,0 2.03,0.17 2.95,0.5 0.92,0.33 1.72,0.8 2.39,1.41 0.67,0.61 1.21,1.33 1.59,2.18 0.39,0.85 0.58,1.79 0.58,2.83 0,0.72 -0.07,1.38 -0.2,1.98 -0.13,0.6 -0.31,1.16 -0.53,1.69 -0.22,0.53 -0.47,1.04 -0.77,1.52 -0.29,0.48 -0.6,0.98 -0.93,1.5 l -4.41,6.89 h -5.21 z m -3.45,-6.21 c 0,0.91 0.3,1.67 0.9,2.26 0.6,0.6 1.38,0.9 2.35,0.9 0.97,0 1.75,-0.3 2.35,-0.9 0.6,-0.6 0.9,-1.35 0.9,-2.26 0,-0.91 -0.3,-1.67 -0.9,-2.26 -0.6,-0.6 -1.38,-0.9 -2.35,-0.9 -0.97,0 -1.75,0.3 -2.35,0.9 -0.6,0.6 -0.9,1.35 -0.9,2.26 z"
   id="path13" />
		</g>
		<path
   d="m 391.88,83.97 h 5.8 v 3.97 H 387.4 V 67.59 h 4.48 z"
   id="path14" />
	</g>
</g>
</svg>
